PathFileType	4	(X/Y/Z)	 s05c0201.trc
DataRate	CameraRate	NumFrames	NumMarkers	Units	OrigDataRate	OrigDataStartFrame	OrigNumFrames
200	200	4	50	mm	200	1001	2000
Frame#	Time	racr			lacr			c7			jug			rlel			rdr			llel			ldr			s2			lic			ric			lasi			rasi			rpsi			lpsi			rgt			lgt			rth1			rth2			rth3			rth4			rlfc			rmfc			rsh1			rsh2			rsh3			rsh4			rlmal			rmmal			rcal			rtoe			rmt5			lth1			lth2			lth4			lth3			llfc			lmfc			lsh1			lsh2			lsh3			lsh4			llmal			lmmal			lcal			ltoe			lmt5			SBIKE			LBIKE			RBIKE			
		X1	Y1	Z1	X2	Y2	Z2	X3	Y3	Z3	X4	Y4	Z4	X5	Y5	Z5	X6	Y6	Z6	X7	Y7	Z7	X8	Y8	Z8	X9	Y9	Z9	X10	Y10	Z10	X11	Y11	Z11	X12	Y12	Z12	X13	Y13	Z13	X14	Y14	Z14	X15	Y15	Z15	X16	Y16	Z16	X17	Y17	Z17	X18	Y18	Z18	X19	Y19	Z19	X20	Y20	Z20	X21	Y21	Z21	X22	Y22	Z22	X23	Y23	Z23	X24	Y24	Z24	X25	Y25	Z25	X26	Y26	Z26	X27	Y27	Z27	X28	Y28	Z28	X29	Y29	Z29	X30	Y30	Z30	X31	Y31	Z31	X32	Y32	Z32	X33	Y33	Z33	X34	Y34	Z34	X35	Y35	Z35	X36	Y36	Z36	X37	Y37	Z37	X38	Y38	Z38	X39	Y39	Z39	X40	Y40	Z40	X41	Y41	Z41	X42	Y42	Z42	X43	Y43	Z43	X44	Y44	Z44	X45	Y45	Z45	X46	Y46	Z46	X47	Y47	Z47	X48	Y48	Z48	X49	Y49	Z49	X50	Y50	Z50	
1001	5.0050	492.310580	1263.353780	-172.512677	464.358526	1280.470084	-433.069381	454.908146	1353.108607	-302.782546	391.886137	1200.923666	-295.738879	497.278227	1096.051384	58.983960	667.189012	968.244047	-51.058174	443.949642	1044.213077	-606.850942	649.929556	969.924760	-456.584268	-113.249132	1173.933133	-232.837423	9.793143	1202.253106	-393.730442	46.686972	1188.307340	-109.501129	64.300167	1147.727358	-368.611565	86.578862	1132.621563	-145.541782	-73.776369	1220.557290	-193.139898	-82.051765	1227.582895	-277.057710	17.050869	1063.462389	-84.349120	-50.455707	1092.671157	-415.568044	119.132504	1009.668985	-81.767894	205.522906	986.152177	-88.277331	265.913753	922.557285	-96.203741	221.925967	1016.983205	-101.983245	375.401269	830.300372	-132.338498	353.916745	825.230695	-241.833406	288.258282	768.246433	-101.274200	242.032351	693.511513	-109.781278	168.116484	650.108201	-108.180366	262.818427	674.032150	-136.015572	76.874135	556.648445	-107.604287	100.733822	565.168335	-189.532500	7.778855	588.611240	-150.443449	162.422356	335.705721	-154.105846	86.955883	403.636118	-87.585932	44.996678	976.623404	-444.122915	119.819968	934.235942	-444.633887	146.786141	958.342318	-433.129109	163.536350	855.208761	-445.114054	255.228311	739.473004	-418.559535	245.443403	722.493313	-312.507624	225.977497	613.627073	-447.292047	244.770586	528.625669	-437.953496	217.893365	444.185336	-437.874887	275.723650	529.785717	-414.925033	217.851632	324.142861	-434.038614	235.847033	353.287485	-356.708251	159.903659	282.004056	-392.955041	454.053865	269.759402	-392.861935	348.413183	239.003746	-458.482663	-258.699285	898.414270	-280.112301	-43.524633	84.849142	-474.951647	-51.773513	80.038919	-77.425209	
1002	5.0100	491.779560	1262.466705	-170.835975	464.550052	1281.753418	-431.247409	454.976499	1353.273645	-300.522281	391.568100	1201.233003	-294.799171	497.010706	1094.152148	59.625755	667.376323	968.213279	-51.761554	444.739431	1046.828760	-606.543967	649.956992	970.132542	-456.544293	-113.040652	1173.593223	-235.322958	10.877247	1202.353628	-395.459426	45.390881	1188.370628	-111.290216	65.328097	1147.383337	-370.386708	86.152878	1133.486294	-147.166660	-74.504245	1220.493821	-195.491944	-81.728281	1227.046266	-280.007576	17.249238	1065.450445	-85.792470	-50.152547	1091.449817	-417.295916	120.014401	1013.487207	-83.348636	206.959531	992.303494	-89.183320	269.081115	929.947479	-97.458252	222.727567	1023.539544	-103.175170	380.017467	839.602220	-133.739506	358.989976	833.965147	-242.647959	292.850177	778.144809	-101.968597	246.237561	703.405062	-110.530137	172.606856	660.115721	-108.725942	267.488330	683.747733	-136.287313	81.359535	566.416516	-108.411186	104.741232	575.156124	-190.844385	12.308330	597.673032	-151.572286	168.372693	346.029299	-153.836324	92.344699	413.605757	-87.789736	43.105949	973.443631	-445.542509	116.707339	929.080296	-446.007782	144.398938	952.612705	-435.070302	158.135944	848.669872	-446.501052	247.096769	730.610046	-419.331712	236.414732	713.609809	-313.712764	218.665801	604.834419	-449.115274	237.922869	520.069359	-439.477045	211.758292	435.295767	-439.651530	268.841619	521.383907	-416.406983	213.263807	315.768533	-435.609586	230.914185	345.329659	-358.174296	155.011000	274.490012	-394.720797	448.955364	259.358336	-392.553786	343.514643	229.507356	-458.940729	-258.681085	898.444522	-280.323027	-43.499254	84.825468	-474.974081	-51.782347	80.032661	-77.455368	
1003	5.0150	491.238272	1261.499447	-169.092247	464.826341	1282.989680	-429.309288	455.129542	1353.406752	-298.192429	391.230613	1201.565640	-293.829340	496.665147	1092.118995	60.342006	667.451594	968.173953	-52.437361	445.662205	1049.434820	-606.268963	650.046226	970.266018	-456.349122	-112.763307	1173.514114	-238.108368	12.273124	1202.441000	-397.382335	43.973916	1188.711756	-113.168849	66.387393	1147.076999	-372.052753	86.031331	1134.683157	-148.668801	-75.140975	1220.521141	-198.110051	-81.622284	1227.194287	-282.887414	17.370858	1067.698595	-87.178653	-49.645019	1090.313409	-419.115422	120.802060	1017.707032	-84.067012	208.077667	998.484101	-90.536254	271.661175	937.458341	-98.158018	223.043139	1029.899800	-105.029533	384.505924	849.476959	-134.372309	363.867874	842.032740	-243.658495	297.169522	788.062310	-102.918404	250.625166	713.378373	-111.184047	176.956000	669.922798	-109.433121	272.041324	693.495174	-136.578364	85.946788	575.890516	-109.244038	111.283573	584.287864	-191.460269	16.518646	606.528575	-152.347235	174.965554	356.272261	-153.689102	98.385139	423.356704	-87.961959	41.100293	970.387416	-447.085739	113.519232	924.026324	-447.533792	141.830914	946.817594	-436.823372	152.643053	842.411274	-447.683530	238.769337	722.582393	-420.519256	226.950842	705.079489	-315.377514	211.304623	596.940773	-450.607671	230.833079	512.366467	-440.936572	204.917749	427.336217	-441.373387	261.878526	513.521171	-417.792631	207.945932	308.271100	-436.894199	225.571272	337.804529	-359.644857	149.540764	267.526388	-396.557807	443.308985	249.342681	-392.016608	338.101605	220.631290	-459.299098	-258.623376	898.472965	-281.051811	-43.509890	84.798167	-474.982700	-51.790925	80.059216	-77.481714	
1004	5.0200	490.555020	1260.572084	-167.323568	465.216773	1284.094300	-427.334517	455.317940	1353.416304	-295.757516	390.892894	1201.804186	-292.738675	496.322161	1090.152432	61.081293	667.424680	968.166227	-53.091021	446.746627	1052.110778	-605.947680	650.226386	970.418600	-456.018726	-112.369845	1173.368251	-241.277300	13.799352	1202.506015	-399.275078	42.613108	1189.642715	-114.664547	67.404362	1146.664935	-373.712221	85.882107	1136.180772	-150.195636	-75.966338	1220.872471	-200.895649	-81.441792	1227.192314	-285.624098	17.189280	1070.169390	-88.567904	-49.013404	1089.290608	-420.973996	121.402646	1022.032382	-84.623968	208.823052	1004.781021	-91.906795	273.822859	945.217973	-99.178071	223.082295	1036.312903	-106.769399	388.324844	859.265855	-135.416640	367.952724	853.359298	-243.633459	301.192182	797.827160	-104.026361	254.839875	723.174469	-111.962438	181.392926	679.424454	-110.341516	276.365883	703.036662	-137.192553	90.571108	584.677032	-110.227032	114.998159	593.169591	-192.163353	20.809887	614.617778	-153.483472	182.260149	366.301089	-153.344759	104.593963	432.652020	-88.193196	39.143279	967.620346	-448.711342	110.225869	919.161147	-449.226583	139.210651	941.283460	-438.638326	147.198581	836.639448	-448.650730	230.524768	714.981559	-421.557369	217.776776	697.382560	-316.386016	203.869957	589.816221	-452.003606	223.417454	505.194019	-442.349317	197.617796	420.212055	-443.094807	254.045744	506.558068	-419.127791	202.265009	301.268056	-438.214878	219.851730	330.735224	-361.097029	143.579820	261.154645	-398.063911	437.130229	239.758037	-391.565710	332.089352	212.073940	-459.622020	-258.482829	898.470519	-281.541416	-43.525163	84.777253	-475.023748	-51.770755	80.079469	-77.513171	
